PathFileType	4	(X/Y/Z)	Patient4_TMGait_0pt6_02_right_28.trc.trc
DataRate	CameraRate	NumFrames	NumMarkers	Units	OrigDataRate	OrigDataStartFrame	OrigNumFrames
80.459770114942	80.459770114942	6	33	mm	80.459770114942	53	       141
Frame#	Time	Sacral			L.Shoulder			Chest			R.Shoulder			Neck			R.ASIS			L.ASIS			R.Thigh.Superior			R.Thigh.Lateral			R.Thigh.Inferior			R.Patella			L.Thigh.Superior			L.Thigh.Lateral			L.Thigh.Inferior			L.Patella			L.Shank.Superior			L.Shank.Lateral			L.Shank.Inferior			R.Shank.Superior			R.Shank.Lateral			R.Shank.Inferior			R.Heel			R.Midfoot.Superior			R.Midfoot.Lateral			R.Toe			L.Heel			L.Midfoot.Lateral			L.Midfoot.Superior			L.Toe			L.Elbow			L.Wrist			R.Elbow			R.Wrist			
		X1	Y1	Z1	X2	Y2	Z2	X3	Y3	Z3	X4	Y4	Z4	X5	Y5	Z5	X6	Y6	Z6	X7	Y7	Z7	X8	Y8	Z8	X9	Y9	Z9	X10	Y10	Z10	X11	Y11	Z11	X12	Y12	Z12	X13	Y13	Z13	X14	Y14	Z14	X15	Y15	Z15	X16	Y16	Z16	X17	Y17	Z17	X18	Y18	Z18	X19	Y19	Z19	X20	Y20	Z20	X21	Y21	Z21	X22	Y22	Z22	X23	Y23	Z23	X24	Y24	Z24	X25	Y25	Z25	X26	Y26	Z26	X27	Y27	Z27	X28	Y28	Z28	X29	Y29	Z29	X30	Y30	Z30	X31	Y31	Z31	X32	Y32	Z32	X33	Y33	Z33	

53	34.286285714286	893.384862302107	1023.904781449831	523.167110915978	1114.727251957258	1426.814171180007	329.533241291483	1219.580416755397	1344.641920256349	482.980966929675	1161.212987559546	1433.527004960959	658.753080336367	1135.906733804370	1487.212045551615	478.339475620038	1117.914671911448	936.617811783667	629.558727272904	1093.814641737822	960.789067184264	356.653605573611	1147.492483249057	736.971129234963	599.982627550650	1061.087329261955	635.239011783561	659.880938550095	1132.486183706956	579.345020123428	577.096056198742	1128.016166449727	492.127430768332	582.590851251602	1177.968972248186	796.828689311913	399.242062832006	1152.447949946731	668.689653322948	317.558777802825	1251.782617900341	612.262125842366	391.585293087017	1275.778241815629	527.478282074432	383.590327500462	1226.564166110515	454.260885309476	367.372231694117	1105.902412550783	375.503309211367	310.744135668851	1131.895570318073	245.274827054274	360.181527886488	1099.624004923604	404.961584419955	590.274339288652	1026.660728106865	302.016183572730	650.423077624902	1068.123496388178	206.950389836227	586.836687866740	932.826821671256	43.263819726996	553.180303967787	1102.964751617601	97.023231774243	593.354415933429	1014.180845789397	37.319488563884	630.801041675113	1222.654395694951	44.131967836968	625.345570796259	970.686984715489	124.354068284926	389.061458363493	1040.168406639000	102.124574366086	308.600901969351	1137.480590751431	139.356156369764	333.885268990116	1245.218617986858	57.234668683516	303.016885494440	996.478928857555	1085.216370726704	236.680266215347	1022.256468894011	824.497768959478	228.515973541397	1176.723931119463	1106.816435459420	820.267862902237	1395.060016718384	981.369662757915	766.693915157948	
54	34.298714285714	892.899611451237	1024.300062031082	524.444526606972	1114.182622072820	1426.883507882209	330.204006026444	1219.697528220852	1344.270335369300	482.973408412012	1162.574955910938	1433.100890766403	659.172417580485	1136.265742120097	1487.075334333027	479.002807263382	1117.595915068687	936.300154587041	629.367983410845	1092.349288614878	960.900027625911	356.587746707368	1145.172807729185	736.088763838685	599.658913596842	1058.020600776822	635.051438678451	660.039216410932	1128.515765386595	578.434662226298	577.090078337118	1123.152008516515	491.464657050750	582.589541121604	1176.554943228303	798.088347815907	399.167256219691	1152.070314138754	669.708820737082	317.243329397175	1251.551085024703	614.216690173709	391.522112150746	1277.242644762829	531.048045615250	383.488365117103	1231.523572089227	456.943388667738	367.454471667761	1116.009158330247	371.335717114611	310.462459723449	1149.136263900068	242.714545143502	360.730638465413	1094.291918577065	404.459546246888	590.237539660465	1020.844678146406	301.963524137700	650.524996763986	1061.521506874190	206.656182846031	586.804119849706	925.387847023821	43.326486507342	553.278847966649	1095.535086609376	96.954921770484	593.391236747207	1006.708838458040	37.333688749213	630.847013009173	1215.185136911210	43.854777120802	625.441092903784	995.236806609279	112.213797153189	389.433742335902	1066.352148828703	94.256394728385	309.335021760467	1161.103719396991	137.283058808971	334.937816285204	1273.784801917059	61.800860452645	304.817998317827	993.348429348952	1085.971234200917	238.085493160001	1012.138998732539	824.905960354098	228.869027433591	1183.853819257566	1106.436745850058	819.142877917132	1406.788728342714	993.148520236788	760.170244286838	
55	34.311142857143	892.484869092999	1024.681054207897	525.538089134216	1113.720759439125	1426.981790749299	330.770491575066	1219.851722162264	1343.908098440181	482.867837003085	1163.913388663334	1432.657446250308	659.476128897337	1136.644519430485	1486.942945520033	479.569973068356	1117.336155399403	936.008085633199	629.082428059854	1091.041514749352	960.935026079088	356.414810098664	1142.878579541432	735.189488951111	599.406085455954	1054.847558094745	634.865758332582	660.175866377861	1124.489818614800	577.495367748361	577.143394070049	1118.216154065862	490.829870518699	582.611944704308	1174.945905087508	798.898906684484	398.934680664522	1151.207872766023	670.354754099037	316.702729521608	1250.752648280939	615.597940916541	391.174597962200	1277.993456816297	534.172483859473	383.221987622593	1235.771275676629	459.365864080544	367.530281927770	1125.978304600162	367.210833096373	309.840679438598	1165.763444878370	240.668239956484	361.311147514868	1088.907767041922	404.004636978370	590.214398852573	1014.968006905776	301.949722292008	650.627356985221	1054.886537051812	206.405061949878	586.796170748107	917.953201596131	43.410815860095	553.389788861443	1088.121177062551	96.894017165983	593.453465728886	999.239045201381	37.353086524954	630.886777769211	1207.718862782027	43.556740582445	625.540846463709	1019.469732491131	101.278584854543	389.386224524883	1092.321204779512	87.390058837313	310.045964626004	1184.074230254403	135.985723409507	336.276152434977	1301.284791243052	67.211372382458	307.645943229565	990.302470175170	1086.850422134887	239.205318225788	1002.779909818673	825.647801472899	229.051776525080	1190.848567906386	1105.926882327362	817.482777729043	1417.565616808979	1004.821270883883	753.274662663384	
56	34.323571428571	892.159071037410	1025.048128817535	526.431961603597	1113.352484849077	1427.111549673722	331.224231154196	1220.041884564874	1343.569733321287	482.667695216997	1165.209836597245	1432.218664559869	659.658623239007	1137.040049594578	1486.823803298852	480.030095911365	1117.148963885425	935.761507526815	628.724876615909	1089.922464192968	960.905026446789	356.141056476305	1140.593649074457	734.285667147434	599.229278615937	1051.555922796048	634.696052040275	660.297742269038	1120.394640559405	576.539801208740	577.266302308829	1113.201924089478	490.229417231923	582.673397402651	1173.213305468619	799.274076073386	398.571159248924	1149.926875073615	670.635965834472	315.967676620682	1249.467230556362	616.398087313220	390.554307087514	1278.071135383510	536.811527813601	382.818803740815	1239.304085506116	461.493552578979	367.596358415272	1135.661059356072	363.198801977416	308.953581472975	1181.571742545287	239.131704478426	361.923058012299	1083.466484196809	403.614994273564	590.223123565912	1009.013377000175	301.983589847644	650.733536604302	1048.213207386623	206.206437402956	586.821227660573	910.520473539643	43.518454164359	553.509861117873	1080.719672647397	96.841031055634	593.538497950984	991.770022200555	37.377940274081	630.917226527343	1200.256020574901	43.245830780024	625.646002114690	1043.036229108607	91.628453151428	389.015239048587	1117.691489496598	81.555296353024	310.773470573495	1206.092877606543	135.432243677937	337.860217321483	1327.380617893326	73.332056695867	311.368655146311	987.352051230080	1087.858721511572	240.036395673309	994.242047222580	826.670555781894	229.060145430508	1197.690995305435	1105.308516079571	815.282241768204	1427.393945290447	1016.257341506802	746.057093516899	
57	34.336000000000	891.941447120150	1025.392849463377	527.110467741493	1113.082973554375	1427.269735235786	331.557928362725	1220.264909468803	1343.265513917825	482.376210704470	1166.445215811721	1431.800365891022	659.716589468489	1137.443995848300	1486.721923908453	480.375204116794	1117.048860680432	935.571688840836	628.314779522241	1089.024350267054	960.813567549829	355.770874531654	1138.303319577416	733.387155379726	599.122839632485	1048.145828070502	634.552869467112	660.409030433665	1116.225330516971	575.579910209482	577.461515593499	1108.114088809055	489.664364670452	582.787254584346	1171.441670665900	799.230612312257	398.092937209561	1148.297150498112	670.556356966889	315.076604888320	1247.779583955218	616.610011216571	389.679510377906	1277.521362753091	538.918851306054	382.300016310088	1242.121510651539	463.282289807362	367.629289775734	1144.860815895755	359.340247023498	307.903465090453	1196.356288771792	238.049346677042	362.553540732114	1077.967987992762	403.300822083472	590.278572629371	1002.969607637140	302.070212419915	650.845186885019	1041.499812548962	206.065551993875	586.885391170903	903.088410914007	43.650109982691	553.634970804586	1073.326856893770	96.795779116138	593.641907247813	984.300368679483	37.407847870193	630.935938764981	1192.796964549307	42.930612506582	625.757248614155	1065.587537193296	83.255793825152	388.472669913379	1142.039421846785	76.708264694979	311.560611568920	1226.855842199613	135.524075229825	339.611686046044	1351.739111664894	79.955498280562	315.718640042658	984.508644407369	1088.990819913894	240.582888565348	986.569720455301	827.914594429839	228.889298669100	1204.354749141550	1104.605509769158	812.546849991038	1436.286207371158	1027.327381380001	738.563837565202	
58	34.348428571429	891.851583287983	1025.697508791561	527.557507661801	1112.911635673573	1427.447216443145	331.764833197415	1220.515714037632	1343.000753686896	481.995865210220	1167.599204627528	1431.410875284485	659.648190318300	1137.842456032992	1486.635478437970	480.599916733931	1117.050078086344	935.439447579173	627.865565282348	1088.380491917543	960.654810543769	355.307979392673	1135.999849592412	732.500468076522	599.072076653547	1044.632291273482	634.442098425984	660.510505630044	1111.989416438653	574.625777825459	577.724307718245	1102.970665319948	489.129966555874	582.962667681633	1169.722214426815	798.785123698769	397.508271729654	1146.390640027936	670.114006560305	314.073808145852	1245.774260579159	616.228515997916	388.578507286545	1276.397276301044	540.444849626711	381.680956459529	1244.226142244469	464.679496474366	367.593507543135	1153.349261687846	355.643948307307	306.809347503022	1209.916606664471	237.320993061417	363.182912726342	1072.418187715860	403.061372511830	590.388504775550	996.834870874366	302.210550185176	650.961903457357	1034.749656292157	205.982961335700	586.991041922070	895.656518134246	43.805827849550	553.760303533300	1065.939448771912	96.757866433295	593.758705429716	976.829025492411	37.442113809766	630.941851718810	1185.341781731891	42.619133770476	625.874513969432	1086.780020038124	76.082648314354	387.948596610177	1164.915678548644	72.742173690543	312.449680617502	1246.062045123559	136.103457175916	341.427433728508	1374.038744653235	86.806338152302	320.329401751996	981.784079297443	1090.230166483548	240.855220139911	979.788468262810	829.315423440939	228.535076926954	1210.806424647260	1103.841791971061	809.295325013549	1444.262354545039	1037.908426548130	730.836765817506	
